<svg xmlns="http://www.w3.org/2000/svg" viewBox="0 0 1200 630" width="100%" height="100%">
  <!-- Link preview card for group chats. Rendered to og.png by tools/render-icons.sh. -->
  <rect width="1200" height="630" fill="#0b0b0c"/>
  <g stroke="#1c1c21" stroke-width="12" fill="none" stroke-linecap="round">
    <path d="M760 -10 L700 640"/><path d="M905 -10 L885 640"/><path d="M1060 -10 L1110 640"/>
    <path d="M650 150 L1210 112"/><path d="M650 330 L1210 318"/><path d="M650 500 L1210 535"/>
  </g>
  <path d="M722 520 L737 330 L897 322 L886 150 L1066 124" stroke="#000" stroke-width="20" fill="none" stroke-linejoin="round" opacity="0.6"/>
  <path d="M722 520 L737 330 L897 322 L886 150 L1066 124" stroke="#e8a33d" stroke-width="9" fill="none" stroke-linejoin="round" stroke-linecap="round"/>
  <circle cx="722" cy="520" r="15" fill="#0b0b0c" stroke="#f4f1ea" stroke-width="8"/>
  <rect x="1052" y="110" width="28" height="28" rx="4" fill="#0b0b0c" stroke="#e8a33d" stroke-width="8"/>
  <g transform="translate(891 236) rotate(-4) scale(2.3) translate(-10 -22)">
    <rect x="7" y="0.8" width="6" height="4.6" rx="1.2" fill="#8a5a2b" stroke="#0b0b0c" stroke-width="1"/>
    <path d="M7.6 5.2H12.4V11C12.4 13 17.5 14 17.5 18.5V40C17.5 41.9 16.4 43 14.5 43H5.5C3.6 43 2.5 41.9 2.5 40V18.5C2.5 14 7.6 13 7.6 11Z" fill="#f6d9a0" stroke="#0b0b0c" stroke-width="1.3"/>
    <path d="M3.5 20H16.5V40C16.5 41.3 15.8 42 14.5 42H5.5C4.2 42 3.5 41.3 3.5 40Z" fill="#e8a33d"/>
    <rect x="3.5" y="25" width="13" height="9.5" fill="#0b0b0c"/>
    <rect x="5.5" y="28.6" width="9" height="2.3" rx="0.6" fill="#e8a33d"/>
    <rect x="4.8" y="15.5" width="1.6" height="7" rx="0.8" fill="#fff" opacity="0.55"/>
  </g>
  <g font-family="Helvetica Neue, Helvetica, Arial, sans-serif">
    <text x="78" y="196" font-size="118" font-weight="800" fill="#f4f1ea" letter-spacing="-5"><tspan fill="#e8a33d">BB</tspan>Uber</text>
    <text x="80" y="300" font-size="48" font-weight="700" fill="#f4f1ea" letter-spacing="-1">Go anywhere in Milford.</text>
    <text x="80" y="360" font-size="48" font-weight="700" fill="#f4f1ea" letter-spacing="-1">Get home eventually.</text>
    <text x="80" y="520" font-size="27" fill="#a39f96">The designated driver service of the</text>
    <text x="80" y="558" font-size="27" fill="#a39f96">Milford Bourbon Boys · Milford, MI</text>
  </g>
</svg>
